<mxfile host="app.diagrams.net" modified="2023-09-12T13:03:34.535Z" agent="Mozilla/5.0 (Macintosh; Intel Mac OS X 10_15_7) AppleWebKit/537.36 (KHTML, like Gecko) Chrome/116.0.0.0 Safari/537.36 Edg/116.0.1938.76" etag="dZAeioLRL9gIFWjP91jm" version="21.7.4" type="device" pages="2">
  <diagram id="C5RBs43oDa-KdzZeNtuy" name="Page-1">
    <mxGraphModel dx="370" dy="823" grid="1" gridSize="10" guides="1" tooltips="1" connect="1" arrows="1" fold="1" page="1" pageScale="1" pageWidth="827" pageHeight="1169" math="0" shadow="0">
      <root>
        <mxCell id="WIyWlLk6GJQsqaUBKTNV-0" />
        <mxCell id="WIyWlLk6GJQsqaUBKTNV-1" parent="WIyWlLk6GJQsqaUBKTNV-0" />
        <mxCell id="7Ozu92ao8JIHMOfPLbVw-0" value="Selesai" style="rounded=1;whiteSpace=wrap;html=1;fontSize=16;" vertex="1" parent="WIyWlLk6GJQsqaUBKTNV-1">
          <mxGeometry x="180" y="640" width="120" height="60" as="geometry" />
        </mxCell>
        <mxCell id="7Ozu92ao8JIHMOfPLbVw-1" value="Mulai" style="rounded=1;whiteSpace=wrap;html=1;fontSize=16;" vertex="1" parent="WIyWlLk6GJQsqaUBKTNV-1">
          <mxGeometry x="180" y="50" width="120" height="60" as="geometry" />
        </mxCell>
        <mxCell id="7Ozu92ao8JIHMOfPLbVw-3" value="Tuangkan larutan ember A ke C" style="rounded=0;whiteSpace=wrap;html=1;fontSize=16;" vertex="1" parent="WIyWlLk6GJQsqaUBKTNV-1">
          <mxGeometry x="160" y="180" width="160" height="60" as="geometry" />
        </mxCell>
        <mxCell id="7Ozu92ao8JIHMOfPLbVw-4" value="Tuangkan larutan&lt;br&gt;&amp;nbsp;ember B ke A" style="rounded=0;whiteSpace=wrap;html=1;fontSize=16;" vertex="1" parent="WIyWlLk6GJQsqaUBKTNV-1">
          <mxGeometry x="160" y="340" width="160" height="60" as="geometry" />
        </mxCell>
        <mxCell id="7Ozu92ao8JIHMOfPLbVw-5" value="Tuangkan larutan&lt;br&gt;&amp;nbsp;ember C ke B" style="rounded=0;whiteSpace=wrap;html=1;fontSize=16;" vertex="1" parent="WIyWlLk6GJQsqaUBKTNV-1">
          <mxGeometry x="160" y="490" width="160" height="60" as="geometry" />
        </mxCell>
        <mxCell id="7Ozu92ao8JIHMOfPLbVw-6" value="" style="endArrow=classic;html=1;rounded=0;fontSize=12;startSize=8;endSize=8;curved=1;exitX=0.5;exitY=1;exitDx=0;exitDy=0;entryX=0.5;entryY=0;entryDx=0;entryDy=0;" edge="1" parent="WIyWlLk6GJQsqaUBKTNV-1" source="7Ozu92ao8JIHMOfPLbVw-1" target="7Ozu92ao8JIHMOfPLbVw-3">
          <mxGeometry width="50" height="50" relative="1" as="geometry">
            <mxPoint x="260" y="450" as="sourcePoint" />
            <mxPoint x="310" y="400" as="targetPoint" />
          </mxGeometry>
        </mxCell>
        <mxCell id="7Ozu92ao8JIHMOfPLbVw-7" value="" style="endArrow=classic;html=1;rounded=0;fontSize=12;startSize=8;endSize=8;curved=1;exitX=0.5;exitY=1;exitDx=0;exitDy=0;entryX=0.5;entryY=0;entryDx=0;entryDy=0;" edge="1" parent="WIyWlLk6GJQsqaUBKTNV-1" source="7Ozu92ao8JIHMOfPLbVw-3" target="7Ozu92ao8JIHMOfPLbVw-4">
          <mxGeometry width="50" height="50" relative="1" as="geometry">
            <mxPoint x="210" y="380" as="sourcePoint" />
            <mxPoint x="260" y="330" as="targetPoint" />
          </mxGeometry>
        </mxCell>
        <mxCell id="7Ozu92ao8JIHMOfPLbVw-9" value="" style="endArrow=classic;html=1;rounded=0;fontSize=12;startSize=8;endSize=8;curved=1;exitX=0.5;exitY=1;exitDx=0;exitDy=0;entryX=0.5;entryY=0;entryDx=0;entryDy=0;" edge="1" parent="WIyWlLk6GJQsqaUBKTNV-1" source="7Ozu92ao8JIHMOfPLbVw-4" target="7Ozu92ao8JIHMOfPLbVw-5">
          <mxGeometry width="50" height="50" relative="1" as="geometry">
            <mxPoint x="210" y="380" as="sourcePoint" />
            <mxPoint x="260" y="330" as="targetPoint" />
          </mxGeometry>
        </mxCell>
        <mxCell id="7Ozu92ao8JIHMOfPLbVw-10" value="" style="endArrow=classic;html=1;rounded=0;fontSize=12;startSize=8;endSize=8;curved=1;exitX=0.5;exitY=1;exitDx=0;exitDy=0;entryX=0.5;entryY=0;entryDx=0;entryDy=0;" edge="1" parent="WIyWlLk6GJQsqaUBKTNV-1" source="7Ozu92ao8JIHMOfPLbVw-5" target="7Ozu92ao8JIHMOfPLbVw-0">
          <mxGeometry width="50" height="50" relative="1" as="geometry">
            <mxPoint x="210" y="380" as="sourcePoint" />
            <mxPoint x="260" y="330" as="targetPoint" />
          </mxGeometry>
        </mxCell>
      </root>
    </mxGraphModel>
  </diagram>
  <diagram name="Copy of Page-1" id="f1rmYjBXKW700Hi_SAQ0">
    <mxGraphModel dx="1536" dy="823" grid="1" gridSize="10" guides="1" tooltips="1" connect="1" arrows="1" fold="1" page="1" pageScale="1" pageWidth="827" pageHeight="1169" math="0" shadow="0">
      <root>
        <mxCell id="rlCJnncyR8ECaw1OWqtI-0" />
        <mxCell id="rlCJnncyR8ECaw1OWqtI-1" parent="rlCJnncyR8ECaw1OWqtI-0" />
        <mxCell id="rlCJnncyR8ECaw1OWqtI-2" value="Selesai" style="rounded=1;whiteSpace=wrap;html=1;fontSize=16;" vertex="1" parent="rlCJnncyR8ECaw1OWqtI-1">
          <mxGeometry x="230" y="690" width="120" height="60" as="geometry" />
        </mxCell>
        <mxCell id="rlCJnncyR8ECaw1OWqtI-3" value="Mulai" style="rounded=1;whiteSpace=wrap;html=1;fontSize=16;" vertex="1" parent="rlCJnncyR8ECaw1OWqtI-1">
          <mxGeometry x="230" y="50" width="120" height="60" as="geometry" />
        </mxCell>
        <mxCell id="rlCJnncyR8ECaw1OWqtI-7" value="" style="endArrow=classic;html=1;rounded=0;fontSize=12;startSize=8;endSize=8;curved=1;exitX=0.5;exitY=1;exitDx=0;exitDy=0;entryX=0.5;entryY=0;entryDx=0;entryDy=0;" edge="1" parent="rlCJnncyR8ECaw1OWqtI-1" source="rlCJnncyR8ECaw1OWqtI-3" target="vzhvNcbupoYrrnvosI6Z-1">
          <mxGeometry width="50" height="50" relative="1" as="geometry">
            <mxPoint x="310" y="450" as="sourcePoint" />
            <mxPoint x="290" y="180" as="targetPoint" />
          </mxGeometry>
        </mxCell>
        <mxCell id="vzhvNcbupoYrrnvosI6Z-1" value="Menginput nama dan nilai" style="shape=parallelogram;perimeter=parallelogramPerimeter;whiteSpace=wrap;html=1;fixedSize=1;fontSize=16;" vertex="1" parent="rlCJnncyR8ECaw1OWqtI-1">
          <mxGeometry x="180" y="180" width="220" height="60" as="geometry" />
        </mxCell>
        <mxCell id="vzhvNcbupoYrrnvosI6Z-2" value="Proses Validasi Kelulusan" style="rounded=0;whiteSpace=wrap;html=1;fontSize=16;" vertex="1" parent="rlCJnncyR8ECaw1OWqtI-1">
          <mxGeometry x="190" y="310" width="200" height="60" as="geometry" />
        </mxCell>
        <mxCell id="vzhvNcbupoYrrnvosI6Z-3" value="" style="endArrow=classic;html=1;rounded=0;fontSize=12;startSize=8;endSize=8;curved=1;exitX=0.5;exitY=1;exitDx=0;exitDy=0;entryX=0.5;entryY=0;entryDx=0;entryDy=0;" edge="1" parent="rlCJnncyR8ECaw1OWqtI-1" source="vzhvNcbupoYrrnvosI6Z-1" target="vzhvNcbupoYrrnvosI6Z-2">
          <mxGeometry width="50" height="50" relative="1" as="geometry">
            <mxPoint x="270" y="440" as="sourcePoint" />
            <mxPoint x="320" y="390" as="targetPoint" />
          </mxGeometry>
        </mxCell>
        <mxCell id="vzhvNcbupoYrrnvosI6Z-4" value="Apakah nilai &amp;gt;= 60?" style="rhombus;whiteSpace=wrap;html=1;fontSize=16;" vertex="1" parent="rlCJnncyR8ECaw1OWqtI-1">
          <mxGeometry x="197.5" y="430" width="185" height="90" as="geometry" />
        </mxCell>
        <mxCell id="vzhvNcbupoYrrnvosI6Z-6" value="Menampilkan nama dan keterangan &quot;Lulus&quot;" style="shape=parallelogram;perimeter=parallelogramPerimeter;whiteSpace=wrap;html=1;fixedSize=1;fontSize=16;" vertex="1" parent="rlCJnncyR8ECaw1OWqtI-1">
          <mxGeometry x="390" y="560" width="210" height="60" as="geometry" />
        </mxCell>
        <mxCell id="vzhvNcbupoYrrnvosI6Z-7" value="Menampilkan nama dan keterangan &quot;Tidak Lulus&quot;" style="shape=parallelogram;perimeter=parallelogramPerimeter;whiteSpace=wrap;html=1;fixedSize=1;fontSize=16;" vertex="1" parent="rlCJnncyR8ECaw1OWqtI-1">
          <mxGeometry x="-17.5" y="560" width="210" height="60" as="geometry" />
        </mxCell>
        <mxCell id="vzhvNcbupoYrrnvosI6Z-8" value="" style="endArrow=classic;html=1;rounded=0;fontSize=12;startSize=8;endSize=8;curved=1;exitX=0.5;exitY=1;exitDx=0;exitDy=0;entryX=0.5;entryY=0;entryDx=0;entryDy=0;" edge="1" parent="rlCJnncyR8ECaw1OWqtI-1" source="vzhvNcbupoYrrnvosI6Z-2" target="vzhvNcbupoYrrnvosI6Z-4">
          <mxGeometry width="50" height="50" relative="1" as="geometry">
            <mxPoint x="290" y="610" as="sourcePoint" />
            <mxPoint x="340" y="560" as="targetPoint" />
          </mxGeometry>
        </mxCell>
        <mxCell id="vzhvNcbupoYrrnvosI6Z-9" value="" style="endArrow=classic;html=1;rounded=0;fontSize=12;startSize=8;endSize=8;curved=1;exitX=1;exitY=0.5;exitDx=0;exitDy=0;entryX=0.5;entryY=0;entryDx=0;entryDy=0;" edge="1" parent="rlCJnncyR8ECaw1OWqtI-1" source="vzhvNcbupoYrrnvosI6Z-4" target="vzhvNcbupoYrrnvosI6Z-6">
          <mxGeometry width="50" height="50" relative="1" as="geometry">
            <mxPoint x="290" y="610" as="sourcePoint" />
            <mxPoint x="340" y="560" as="targetPoint" />
            <Array as="points">
              <mxPoint x="540" y="460" />
            </Array>
          </mxGeometry>
        </mxCell>
        <mxCell id="vzhvNcbupoYrrnvosI6Z-10" value="Ya" style="edgeLabel;html=1;align=center;verticalAlign=middle;resizable=0;points=[];fontSize=16;" vertex="1" connectable="0" parent="vzhvNcbupoYrrnvosI6Z-9">
          <mxGeometry x="-0.2199" y="-21" relative="1" as="geometry">
            <mxPoint as="offset" />
          </mxGeometry>
        </mxCell>
        <mxCell id="vzhvNcbupoYrrnvosI6Z-11" value="" style="endArrow=classic;html=1;rounded=0;fontSize=12;startSize=8;endSize=8;curved=1;exitX=0;exitY=0.5;exitDx=0;exitDy=0;entryX=0.5;entryY=0;entryDx=0;entryDy=0;" edge="1" parent="rlCJnncyR8ECaw1OWqtI-1" source="vzhvNcbupoYrrnvosI6Z-4" target="vzhvNcbupoYrrnvosI6Z-7">
          <mxGeometry width="50" height="50" relative="1" as="geometry">
            <mxPoint x="290" y="610" as="sourcePoint" />
            <mxPoint x="340" y="560" as="targetPoint" />
            <Array as="points">
              <mxPoint x="60" y="470" />
            </Array>
          </mxGeometry>
        </mxCell>
        <mxCell id="vzhvNcbupoYrrnvosI6Z-12" value="Tidak" style="edgeLabel;html=1;align=center;verticalAlign=middle;resizable=0;points=[];fontSize=16;" vertex="1" connectable="0" parent="vzhvNcbupoYrrnvosI6Z-11">
          <mxGeometry x="-0.2018" y="16" relative="1" as="geometry">
            <mxPoint as="offset" />
          </mxGeometry>
        </mxCell>
        <mxCell id="vzhvNcbupoYrrnvosI6Z-13" value="" style="endArrow=classic;html=1;rounded=0;fontSize=12;startSize=8;endSize=8;curved=1;exitX=0.471;exitY=1;exitDx=0;exitDy=0;exitPerimeter=0;entryX=0;entryY=0.5;entryDx=0;entryDy=0;" edge="1" parent="rlCJnncyR8ECaw1OWqtI-1" source="vzhvNcbupoYrrnvosI6Z-7" target="rlCJnncyR8ECaw1OWqtI-2">
          <mxGeometry width="50" height="50" relative="1" as="geometry">
            <mxPoint x="290" y="610" as="sourcePoint" />
            <mxPoint x="340" y="560" as="targetPoint" />
          </mxGeometry>
        </mxCell>
        <mxCell id="vzhvNcbupoYrrnvosI6Z-15" value="" style="endArrow=classic;html=1;rounded=0;fontSize=12;startSize=8;endSize=8;curved=1;exitX=0.5;exitY=1;exitDx=0;exitDy=0;entryX=1;entryY=0.5;entryDx=0;entryDy=0;" edge="1" parent="rlCJnncyR8ECaw1OWqtI-1" source="vzhvNcbupoYrrnvosI6Z-6" target="rlCJnncyR8ECaw1OWqtI-2">
          <mxGeometry width="50" height="50" relative="1" as="geometry">
            <mxPoint x="290" y="610" as="sourcePoint" />
            <mxPoint x="340" y="560" as="targetPoint" />
          </mxGeometry>
        </mxCell>
      </root>
    </mxGraphModel>
  </diagram>
</mxfile>
